<svg width="3" height="47" viewBox="0 0 3 47" fill="none" xmlns="http://www.w3.org/2000/svg">
<path d="M2.54766 1.56136C2.54765 1.24708 2.42317 0.945659 2.20159 0.723424C1.98 0.501188 1.67947 0.376338 1.3661 0.376337C1.05274 0.376339 0.752206 0.501188 0.530621 0.723425C0.309037 0.94566 0.184553 1.24708 0.184553 1.56136L0.184552 4.90889C0.184553 5.22318 0.309037 5.5246 0.530622 5.74683C0.752206 5.96907 1.05274 6.09392 1.3661 6.09392C1.67947 6.09392 1.98 5.96907 2.20159 5.74683C2.42317 5.5246 2.54765 5.22318 2.54765 4.90889L2.54766 1.56136ZM1.3661 10.4189C1.52132 10.4187 1.67505 10.4492 1.81849 10.5087C1.96193 10.5682 2.09227 10.6555 2.20202 10.7656C2.31178 10.8757 2.3988 11.0064 2.45811 11.1502C2.51742 11.2941 2.54785 11.4483 2.54765 11.604L2.54765 14.9515C2.54765 15.2658 2.42317 15.5672 2.20158 15.7894C1.98 16.0117 1.67947 16.1365 1.3661 16.1365C1.05274 16.1365 0.752204 16.0117 0.53062 15.7894C0.309037 15.5672 0.184551 15.2658 0.184552 14.9515L0.184551 11.604C0.184356 11.4483 0.214784 11.2941 0.274093 11.1502C0.333401 11.0064 0.420426 10.8757 0.530183 10.7656C0.639939 10.6555 0.770268 10.5682 0.91371 10.5087C1.05715 10.4492 1.21088 10.4187 1.3661 10.4189ZM1.3661 20.4615C1.52132 20.4613 1.67505 20.4918 1.81849 20.5513C1.96193 20.6108 2.09226 20.6981 2.20202 20.8082C2.31178 20.9182 2.3988 21.049 2.45811 21.1928C2.51742 21.3367 2.54785 21.4909 2.54765 21.6465V24.9941C2.54765 25.3084 2.42317 25.6098 2.20158 25.832C1.98 26.0543 1.67947 26.1791 1.3661 26.1791C1.05273 26.1791 0.752203 26.0542 0.53062 25.832C0.309034 25.6098 0.18455 25.3084 0.18455 24.9941L0.18455 21.6465C0.184354 21.4909 0.214783 21.3367 0.274092 21.1928C0.333402 21.049 0.420425 20.9182 0.530183 20.8082C0.639939 20.6981 0.770269 20.6108 0.913709 20.5513C1.05715 20.4918 1.21088 20.4613 1.3661 20.4615ZM1.3661 30.5041C1.52132 30.5039 1.67505 30.5344 1.81849 30.5939C1.96193 30.6534 2.09226 30.7407 2.20202 30.8508C2.31178 30.9608 2.3988 31.0915 2.45811 31.2354C2.51742 31.3793 2.54785 31.5335 2.54765 31.6891L2.54765 35.0367C2.54765 35.351 2.42317 35.6524 2.20158 35.8746C1.98 36.0968 1.67947 36.2217 1.3661 36.2217C1.05273 36.2217 0.752201 36.0968 0.530618 35.8746C0.309034 35.6524 0.184549 35.351 0.18455 35.0367L0.184549 31.6891C0.184353 31.5335 0.214783 31.3793 0.274092 31.2354C0.3334 31.0916 0.420424 30.9608 0.53018 30.8508C0.639936 30.7407 0.770269 30.6534 0.91371 30.5939C1.05715 30.5344 1.21088 30.5039 1.3661 30.5041ZM2.54765 41.7317C2.54765 41.4174 2.42317 41.116 2.20158 40.8938C1.98 40.6716 1.67947 40.5467 1.3661 40.5467C1.05273 40.5467 0.752202 40.6716 0.530617 40.8938C0.309033 41.116 0.184549 41.4174 0.184548 41.7317L0.184549 45.0793C0.184548 45.3935 0.309033 45.695 0.530617 45.9172C0.7522 46.1394 1.05273 46.2643 1.3661 46.2643C1.67946 46.2643 1.98 46.1394 2.20158 45.9172C2.42316 45.695 2.54765 45.3935 2.54765 45.0793L2.54765 41.7317Z" fill="#B7B7B9"/>
</svg>
