<svg width="31" height="24" viewBox="0 0 31 24" fill="none" xmlns="http://www.w3.org/2000/svg">
<path d="M15.752 6.22623L25.5748 14.362V23.1428C25.5748 23.3701 25.485 23.5882 25.3251 23.7489C25.1652 23.9097 24.9484 24 24.7223 24L18.7521 23.9845C18.5267 23.9833 18.311 23.8925 18.1521 23.7319C17.9931 23.5712 17.9039 23.3538 17.9039 23.1272V17.9993C17.9039 17.772 17.8141 17.5539 17.6542 17.3932C17.4944 17.2324 17.2775 17.1421 17.0515 17.1421H13.6417C13.4156 17.1421 13.1988 17.2324 13.0389 17.3932C12.8791 17.5539 12.7893 17.772 12.7893 17.9993V23.1235C12.7896 23.2363 12.7678 23.348 12.7252 23.4523C12.6825 23.5567 12.6197 23.6515 12.5405 23.7314C12.4614 23.8113 12.3673 23.8746 12.2637 23.9179C12.1601 23.9611 12.049 23.9834 11.9368 23.9834L5.96871 24C5.74263 24 5.52581 23.9097 5.36595 23.7489C5.20608 23.5882 5.11627 23.3701 5.11627 23.1428V14.3561L14.9369 6.22623C15.0523 6.13264 15.1962 6.08161 15.3445 6.08161C15.4927 6.08161 15.6366 6.13264 15.752 6.22623ZM0.236071 11.756L4.69005 8.06394V0.642929C4.69005 0.472414 4.75741 0.308882 4.87731 0.18831C4.99721 0.0677371 5.15982 0 5.32938 0H8.31291C8.48247 0 8.64509 0.0677371 8.76499 0.18831C8.88488 0.308882 8.95224 0.472414 8.95224 0.642929V4.53318L13.7222 0.586673C14.1799 0.207869 14.7543 0.000757234 15.3471 0.000757234C15.9399 0.000757234 16.5143 0.207869 16.9721 0.586673L30.4582 11.756C30.5229 11.8098 30.5765 11.8759 30.6158 11.9505C30.6551 12.0251 30.6794 12.1068 30.6873 12.1909C30.6953 12.275 30.6866 12.3598 30.6619 12.4406C30.6372 12.5213 30.597 12.5963 30.5434 12.6614L29.1848 14.3223C29.1314 14.3876 29.0658 14.4417 28.9915 14.4814C28.9173 14.5212 28.8361 14.5458 28.7524 14.5539C28.6687 14.562 28.5843 14.5534 28.5039 14.5287C28.4235 14.5039 28.3487 14.4635 28.2839 14.4096L15.752 4.02956C15.6366 3.93597 15.4927 3.88494 15.3445 3.88494C15.1962 3.88494 15.0523 3.93597 14.9369 4.02956L2.40446 14.4096C2.33975 14.4635 2.26513 14.504 2.18485 14.5288C2.10457 14.5537 2.02022 14.5623 1.9366 14.5544C1.85299 14.5464 1.77175 14.522 1.69753 14.4824C1.62332 14.4429 1.55758 14.389 1.50407 14.3239L0.145498 12.663C0.0920086 12.5976 0.0519066 12.5221 0.0275002 12.4411C0.00309372 12.36 -0.00513649 12.2748 0.00328064 12.1906C0.0116978 12.1063 0.0365982 12.0245 0.0765476 11.9499C0.116497 11.8753 0.17071 11.8094 0.236071 11.756Z" fill="#FE7E74"/>
</svg>
