<svg width="27" height="26" viewBox="0 0 27 26" fill="none" xmlns="http://www.w3.org/2000/svg">
<path d="M11.6801 5.30184L13.0383 6.66011M14.2461 7.86789L15.6044 9.22616M16.8122 10.4339L18.1704 11.7922M19.3782 13L20.7365 14.3583M22.0948 7.11351C21.6744 7.53387 21.1043 7.77003 20.5098 7.77003C19.9153 7.77003 19.3452 7.53387 18.9248 7.11351C18.5045 6.69315 18.2683 6.12302 18.2683 5.52854C18.2683 4.93406 18.5045 4.36393 18.9248 3.94357L15.9819 1L1.03833 15.9436L3.9819 18.8871C4.40217 18.4668 4.97222 18.2306 5.56664 18.2305C6.16106 18.2305 6.73116 18.4665 7.15152 18.8868C7.57188 19.3071 7.80807 19.8771 7.80813 20.4716C7.80819 21.066 7.57212 21.6361 7.15184 22.0564L10.0948 25L25.0383 10.0564L22.0948 7.11351Z" stroke="#8E8E8E" stroke-width="2" stroke-linecap="round" stroke-linejoin="round"/>
</svg>
