<svg width="22" height="20" viewBox="0 0 22 20" fill="none" xmlns="http://www.w3.org/2000/svg">
<path d="M17.9272 18.6539H3.14944C2.58954 18.6539 2.05257 18.4314 1.65666 18.0355C1.26075 17.6396 1.03833 17.1027 1.03833 16.5428V7.04275C1.03833 6.48285 1.26075 5.94588 1.65666 5.54997C2.05257 5.15406 2.58954 4.93164 3.14944 4.93164H17.9272C18.4871 4.93164 19.0241 5.15406 19.42 5.54997C19.8159 5.94588 20.0383 6.48285 20.0383 7.04275V16.5428C20.0383 17.1027 19.8159 17.6396 19.42 18.0355C19.0241 18.4314 18.4871 18.6539 17.9272 18.6539Z" stroke="#8E8E8E" stroke-width="2"/>
<path d="M15.2883 12.3192C15.1483 12.3192 15.0141 12.2636 14.9151 12.1646C14.8161 12.0657 14.7605 11.9314 14.7605 11.7914C14.7605 11.6515 14.8161 11.5172 14.9151 11.4183C15.0141 11.3193 15.1483 11.2637 15.2883 11.2637C15.4283 11.2637 15.5625 11.3193 15.6615 11.4183C15.7604 11.5172 15.8161 11.6515 15.8161 11.7914C15.8161 11.9314 15.7604 12.0657 15.6615 12.1646C15.5625 12.2636 15.4283 12.3192 15.2883 12.3192Z" fill="#8E8E8E" stroke="#8E8E8E" stroke-width="2" stroke-linecap="round" stroke-linejoin="round"/>
<path d="M16.8717 4.93084V3.45623C16.8716 3.1327 16.7971 2.81353 16.6541 2.52335C16.511 2.23317 16.3032 1.97975 16.0466 1.78266C15.7901 1.58557 15.4916 1.45008 15.1744 1.38666C14.8571 1.32324 14.5296 1.33359 14.2169 1.41689L2.60583 4.51284C2.15622 4.63265 1.75879 4.89765 1.47532 5.26664C1.19185 5.63562 1.03823 6.08793 1.03833 6.55323V7.04195" stroke="#8E8E8E" stroke-width="2"/>
</svg>
