<svg width="34" height="34" viewBox="0 0 34 34" fill="none" xmlns="http://www.w3.org/2000/svg">
<path d="M12 17C12 18.3261 12.5268 19.5979 13.4645 20.5355C14.4021 21.4732 15.6739 22 17 22C18.3261 22 19.5979 21.4732 20.5355 20.5355C21.4732 19.5979 22 18.3261 22 17C22 15.6739 21.4732 14.4021 20.5355 13.4645C19.5979 12.5268 18.3261 12 17 12C15.6739 12 14.4021 12.5268 13.4645 13.4645C12.5268 14.4021 12 15.6739 12 17ZM25.3333 25.3333L21.1667 21.1667L25.3333 25.3333ZM13.6667 5.33333L17 2L20.3333 5.33333M28.6667 13.6667L32 17L28.6667 20.3333M5.33333 13.6667L2 17L5.33333 20.3333M13.6667 28.6667L17 32L20.3333 28.6667" fill="#2C1FBC"/>
<path d="M25.3333 25.3333L21.1667 21.1667M13.6667 5.33333L17 2L20.3333 5.33333M28.6667 13.6667L32 17L28.6667 20.3333M5.33333 13.6667L2 17L5.33333 20.3333M13.6667 28.6667L17 32L20.3333 28.6667M12 17C12 18.3261 12.5268 19.5979 13.4645 20.5355C14.4021 21.4732 15.6739 22 17 22C18.3261 22 19.5979 21.4732 20.5355 20.5355C21.4732 19.5979 22 18.3261 22 17C22 15.6739 21.4732 14.4021 20.5355 13.4645C19.5979 12.5268 18.3261 12 17 12C15.6739 12 14.4021 12.5268 13.4645 13.4645C12.5268 14.4021 12 15.6739 12 17Z" stroke="white" stroke-width="3" stroke-linecap="round" stroke-linejoin="round"/>
</svg>
