<?xml version="1.0" encoding="UTF-8" standalone="no"?>
<svg
   width="173"
   height="30"
   viewBox="0 0 173 30"
   fill="none"
   version="1.1"
   id="svg4"
   sodipodi:docname="DocumentProgressBar.svg"
   inkscape:export-filename="DocumentProgressBar.svg"
   inkscape:export-xdpi="96"
   inkscape:export-ydpi="96"
   inkscape:version="1.3 (0e150ed, 2023-07-21)"
   xmlns:inkscape="http://www.inkscape.org/namespaces/inkscape"
   xmlns:sodipodi="http://sodipodi.sourceforge.net/DTD/sodipodi-0.dtd"
   xmlns="http://www.w3.org/2000/svg"
   xmlns:svg="http://www.w3.org/2000/svg">
  <defs
     id="defs4" />
  <sodipodi:namedview
     id="namedview4"
     pagecolor="#ffffff"
     bordercolor="#000000"
     borderopacity="0.25"
     inkscape:showpageshadow="2"
     inkscape:pageopacity="0.0"
     inkscape:pagecheckerboard="0"
     inkscape:deskcolor="#d1d1d1"
     inkscape:export-bgcolor="#ffffff00"
     inkscape:zoom="4"
     inkscape:cx="54.75"
     inkscape:cy="16.625"
     inkscape:window-width="1920"
     inkscape:window-height="954"
     inkscape:window-x="0"
     inkscape:window-y="25"
     inkscape:window-maximized="1"
     inkscape:current-layer="svg4" />
  <g
     id="g4">
    <path
       id="line2"
       style="stroke:#d9d9d9;stroke-width:10"
       d="M 13.988659,15.473089 H 157.99266" />
    <path
       id="circle2"
       style="fill:#d9d9d9"
       d="m 29.99066,15.019989 a 15,15 0 0 1 -15,15 15,15 0 0 1 -15.00000029,-15 A 15,15 0 0 1 14.99066,0.01998901 a 15,15 0 0 1 15,14.99999999 z" />
    <path
       id="circle3"
       transform="rotate(145.98951)"
       style="fill:#d9d9d9"
       d="m -107.61469,-100.75435 a 15,15 0 0 1 -15,15.000001 15,15 0 0 1 -15,-15.000001 15,15 0 0 1 15,-15 15,15 0 0 1 15,15 z" />
  </g>
</svg>
